<?xml version="1.0" encoding="utf-8"?>
<!-- Generator: Adobe Illustrator 21.0.2, SVG Export Plug-In . SVG Version: 6.00 Build 0)  -->
<svg version="1.1" id="Слой_1" xmlns="http://www.w3.org/2000/svg" xmlns:xlink="http://www.w3.org/1999/xlink" x="0px" y="0px"
	 width="19px" height="19px" viewBox="0 0 19 19" style="enable-background:new 0 0 19 19;" xml:space="preserve">
<style type="text/css">
	.st0{fill:#A3A3A3;}
</style>
<path class="st0" d="M18,1v6h-1V2H2l0,5L1,7l0-6H18z M18,9l0,9H1l0-9l0.5,0c2.7,0,5.4,0,8.1,0c2.6,0,5.3,0,7.9,0L18,9z M17,17l0-7
	c-2.5,0-5,0-7.4,0c-2.5,0-5,0-7.6,0l0,7H17z M5,5v1h3V5H5z M5,14h3v-1H5V14z"/>
</svg>
