<?xml version="1.0" encoding="utf-8"?>
<!-- Generator: Adobe Illustrator 21.0.2, SVG Export Plug-In . SVG Version: 6.00 Build 0)  -->
<svg version="1.1" id="Слой_1" xmlns="http://www.w3.org/2000/svg" xmlns:xlink="http://www.w3.org/1999/xlink" x="0px" y="0px"
	 width="27px" height="27px" viewBox="0 0 27 27" style="enable-background:new 0 0 27 27;" xml:space="preserve">
<style type="text/css">
	.st0{fill:#C3C3C3;}
</style>
<path class="st0" d="M13.5,7.1c-3.5,0-6.4,2.9-6.4,6.4s2.9,6.4,6.4,6.4s6.4-2.9,6.4-6.4S17,7.1,13.5,7.1z M13.5,18.5
	c-2.7,0-5-2.2-5-5s2.2-5,5-5s5,2.2,5,5S16.2,18.5,13.5,18.5z M5.8,7.1c-0.3-0.3-0.3-0.7,0-1s0.7-0.3,1,0L8,7.2c0.3,0.3,0.3,0.7,0,1
	C7.8,8.3,7.7,8.4,7.5,8.4S7.1,8.3,7,8.2L5.8,7.1z M19,8.2c-0.3-0.3-0.3-0.7,0-1l1.2-1.1c0.3-0.3,0.7-0.3,1,0s0.3,0.7,0,1L20,8.2
	c-0.1,0.1-0.3,0.2-0.5,0.2S19.2,8.3,19,8.2z M12.8,5.1V3.5c0-0.4,0.3-0.7,0.7-0.7s0.7,0.3,0.7,0.7v1.6c0,0.4-0.3,0.7-0.7,0.7
	S12.8,5.5,12.8,5.1z M5.1,14.2H3.5c-0.4,0-0.7-0.3-0.7-0.7s0.3-0.7,0.7-0.7h1.6c0.4,0,0.7,0.3,0.7,0.7S5.5,14.2,5.1,14.2z
	 M24.2,13.5c0,0.4-0.3,0.7-0.7,0.7h-1.6c-0.4,0-0.7-0.3-0.7-0.7s0.3-0.7,0.7-0.7h1.6C23.9,12.8,24.2,13.1,24.2,13.5z M21.2,19.9
	c0.3,0.3,0.3,0.7,0,1c-0.1,0.1-0.3,0.2-0.5,0.2s-0.4-0.1-0.5-0.2L19,19.8c-0.3-0.3-0.3-0.7,0-1s0.7-0.3,1,0L21.2,19.9z M14.2,21.9
	v1.6c0,0.4-0.3,0.7-0.7,0.7s-0.7-0.3-0.7-0.7v-1.6c0-0.4,0.3-0.7,0.7-0.7S14.2,21.5,14.2,21.9z M8,18.8c0.3,0.3,0.3,0.7,0,1L6.8,21
	c-0.1,0.1-0.3,0.2-0.5,0.2S5.9,21.1,5.8,21c-0.3-0.3-0.3-0.7,0-1L7,18.8C7.3,18.6,7.7,18.6,8,18.8z"/>
</svg>
