<?xml version="1.0" encoding="utf-8"?>
<!-- Generator: Adobe Illustrator 21.0.2, SVG Export Plug-In . SVG Version: 6.00 Build 0)  -->
<svg version="1.1" id="Слой_1" xmlns="http://www.w3.org/2000/svg" xmlns:xlink="http://www.w3.org/1999/xlink" x="0px" y="0px"
	 width="27px" height="27px" viewBox="0 0 27 27" style="enable-background:new 0 0 27 27;" xml:space="preserve">
<style type="text/css">
	.st0{fill:#C3C3C3;}
</style>
<path class="st0" d="M12.3,21.2c-1.4,0-2.8-0.4-4.1-1.2C8,19.9,7.9,19.6,8,19.3c0-0.3,0.3-0.5,0.5-0.6c2.5-0.6,4.2-2.7,4.2-5.3
	c0-2.5-1.7-4.7-4.2-5.3C8.2,8.2,8,8,8,7.7C7.9,7.4,8,7.1,8.3,7c1.2-0.8,2.6-1.2,4.1-1.2c4.2,0,7.7,3.5,7.7,7.7S16.6,21.2,12.3,21.2z
	 M10.5,19.5c0.6,0.2,1.2,0.3,1.9,0.3c3.5,0,6.3-2.8,6.3-6.3s-2.8-6.3-6.3-6.3c-0.6,0-1.3,0.1-1.9,0.3c2.2,1.2,3.6,3.4,3.6,6
	S12.6,18.4,10.5,19.5z"/>
</svg>
